<svg width="48" height="48" viewBox="0 0 48 48" fill="none" xmlns="http://www.w3.org/2000/svg">
  <rect width="48" height="48" rx="14" fill="#0B0F14"></rect>
  <path d="M13 28L16.2 18.8C16.8 17.1 18.4 16 20.2 16H27.8C29.6 16 31.2 17.1 31.8 18.8L35 28" stroke="#D6B56D" stroke-width="2.2" stroke-linecap="round"></path>
  <path d="M15 28H33C35.2 28 37 29.8 37 32V34C37 35.1 36.1 36 35 36H33C31.9 36 31 35.1 31 34V33H17V34C17 35.1 16.1 36 15 36H13C11.9 36 11 35.1 11 34V32C11 29.8 12.8 28 15 28Z" stroke="#F5F5F5" stroke-width="2.2" stroke-linejoin="round"></path>
  <circle cx="17" cy="32" r="1.6" fill="#D6B56D"></circle>
  <circle cx="31" cy="32" r="1.6" fill="#D6B56D"></circle>
  <path d="M36 13C37.2 15.2 38.8 16.8 41 18C38.8 19.2 37.2 20.8 36 23C34.8 20.8 33.2 19.2 31 18C33.2 16.8 34.8 15.2 36 13Z" fill="#D6B56D"></path>
</svg>